<?xml version="1.0" encoding="UTF-8"?>
<svg width="1600" height="900" viewBox="0 0 1600 900" fill="none" xmlns="http://www.w3.org/2000/svg">
  <defs>
    <linearGradient id="page-gradient" x1="0" y1="0" x2="1" y2="1">
      <stop offset="0%" stop-color="#2f8de4" stop-opacity="0.25" />
      <stop offset="100%" stop-color="#00a8cc" stop-opacity="0.18" />
    </linearGradient>
    <radialGradient id="page-glow" cx="0.5" cy="0.5" r="0.5">
      <stop offset="0%" stop-color="#2f8de4" stop-opacity="0.35" />
      <stop offset="100%" stop-color="#0a1a28" stop-opacity="0" />
    </radialGradient>
  </defs>

  <rect width="1600" height="900" fill="none" />

  <circle cx="320" cy="200" r="220" fill="url(#page-glow)" />
  <circle cx="1260" cy="260" r="260" fill="url(#page-glow)" />
  <circle cx="900" cy="740" r="300" fill="url(#page-glow)" opacity="0.7" />

  <path d="M0 600 C 260 520, 520 680, 820 600 C 1120 520, 1380 680, 1600 600" stroke="url(#page-gradient)" stroke-width="2" />
  <path d="M0 700 C 240 640, 540 780, 860 700 C 1180 620, 1440 780, 1600 700" stroke="url(#page-gradient)" stroke-width="1.6" opacity="0.7" />

  <path d="M140 820 C 380 740, 640 880, 940 820 C 1240 760, 1460 900, 1600 820" fill="none" stroke="#2f8de4" stroke-opacity="0.12" stroke-width="60" stroke-linecap="round" />

  <g opacity="0.28">
    <rect x="220" y="120" width="8" height="120" fill="#2f8de4" />
    <rect x="255" y="90" width="8" height="150" fill="#00a8cc" />
    <rect x="290" y="140" width="8" height="100" fill="#2f8de4" />
  </g>

  <g opacity="0.28">
    <rect x="1180" y="540" width="8" height="120" fill="#2f8de4" />
    <rect x="1215" y="510" width="8" height="150" fill="#00a8cc" />
    <rect x="1250" y="560" width="8" height="100" fill="#2f8de4" />
  </g>
</svg>
